<svg width="100%" height="100%"><path d="M621,503L190,513L768,506Z" fill="#4c7394" stroke="#4c7394" stroke-width="1.51"></path><path d="M691,-113L795,-114L923,-128Z" fill="#a5d1c1" stroke="#a5d1c1" stroke-width="1.51"></path><path d="M885,507L768,506L996,517Z" fill="#275e95" stroke="#275e95" stroke-width="1.51"></path><path d="M768,506L190,513L996,517Z" fill="#3c6c95" stroke="#3c6c95" stroke-width="1.51"></path><path d="M691,-113L923,-128L1019,-142Z" fill="#a2cbc2" stroke="#a2cbc2" stroke-width="1.51"></path><path d="M269,-153L691,-113L1019,-142Z" fill="#afdbc4" stroke="#afdbc4" stroke-width="1.51"></path><path d="M269,-153L1019,-142L1106,-143Z" fill="#a7d2c7" stroke="#a7d2c7" stroke-width="1.51"></path><path d="M1244,467L996,517L1407,483Z" fill="#1f428f" stroke="#1f428f" stroke-width="1.51"></path><path d="M1264,-119L1353,-83L1475,-89Z" fill="#9897aa" stroke="#9897aa" stroke-width="1.51"></path><path d="M1407,483L996,517L1542,475Z" fill="#1f398a" stroke="#1f398a" stroke-width="1.51"></path><path d="M269,-153L1106,-143L1635,-157Z" fill="#a1c0c5" stroke="#a1c0c5" stroke-width="1.51"></path><path d="M-91,-160L269,-153L1635,-157Z" fill="#b5dfc7" stroke="#b5dfc7" stroke-width="1.51"></path><path d="M1264,-119L1475,-89L1635,-157Z" fill="#9790a9" stroke="#9790a9" stroke-width="1.51"></path><path d="M1106,-143L1264,-119L1635,-157Z" fill="#9b9cb4" stroke="#9b9cb4" stroke-width="1.51"></path><path d="M1474,277L1470,400L1647,378Z" fill="#204693" stroke="#204693" stroke-width="1.51"></path><path d="M1593,197L1474,277L1647,378Z" fill="#225696" stroke="#225696" stroke-width="1.51"></path><path d="M1604,102L1593,197L1647,378Z" fill="#296094" stroke="#296094" stroke-width="1.51"></path><path d="M1475,-22L1604,102L1648,-23Z" fill="#707e95" stroke="#707e95" stroke-width="1.51"></path><path d="M1635,-157L1475,-89L1648,-23Z" fill="#8a8793" stroke="#8a8793" stroke-width="1.51"></path><path d="M1475,-89L1475,-22L1648,-23Z" fill="#85879a" stroke="#85879a" stroke-width="1.51"></path><path d="M1604,102L1647,378L1648,-23Z" fill="#3b6a92" stroke="#3b6a92" stroke-width="1.51"></path><path d="M1470,400L1600,454L1647,378Z" fill="#1e3687" stroke="#1e3687" stroke-width="1.51"></path><path d="M1475,-22L1468,76L1604,102Z" fill="#687e9d" stroke="#687e9d" stroke-width="1.51"></path><path d="M1470,400L1542,475L1600,454Z" fill="#1f3088" stroke="#1f3088" stroke-width="1.51"></path><path d="M1468,76L1593,197L1604,102Z" fill="#4a729b" stroke="#4a729b" stroke-width="1.51"></path><path d="M1468,76L1474,277L1593,197Z" fill="#386ea3" stroke="#386ea3" stroke-width="1.51"></path><path d="M1468,76L1365,219L1474,277Z" fill="#3c71ac" stroke="#3c71ac" stroke-width="1.51"></path><path d="M1470,400L1407,483L1542,475Z" fill="#22328d" stroke="#22328d" stroke-width="1.51"></path><path d="M499,488L190,513L621,503Z" fill="#5a7795" stroke="#5a7795" stroke-width="1.51"></path><path d="M1341,83L1365,219L1468,76Z" fill="#517eac" stroke="#517eac" stroke-width="1.51"></path><path d="M1351,365L1470,400L1474,277Z" fill="#274da0" stroke="#274da0" stroke-width="1.51"></path><path d="M1365,219L1351,365L1474,277Z" fill="#2a61aa" stroke="#2a61aa" stroke-width="1.51"></path><path d="M1421,12L1468,76L1475,-22Z" fill="#7886a5" stroke="#7886a5" stroke-width="1.51"></path><path d="M1421,12L1475,-22L1475,-89Z" fill="#898ba4" stroke="#898ba4" stroke-width="1.51"></path><path d="M1353,-83L1421,12L1475,-89Z" fill="#8f8fa7" stroke="#8f8fa7" stroke-width="1.51"></path><path d="M1351,365L1407,483L1470,400Z" fill="#263f99" stroke="#263f99" stroke-width="1.51"></path><path d="M1421,12L1341,83L1468,76Z" fill="#6b84aa" stroke="#6b84aa" stroke-width="1.51"></path><path d="M1353,-83L1265,-37L1421,12Z" fill="#8b95aa" stroke="#8b95aa" stroke-width="1.51"></path><path d="M1265,-37L1341,83L1421,12Z" fill="#7b90ab" stroke="#7b90ab" stroke-width="1.51"></path><path d="M1351,365L1244,467L1407,483Z" fill="#26409a" stroke="#26409a" stroke-width="1.51"></path><path d="M1099,454L996,517L1244,467Z" fill="#234e97" stroke="#234e97" stroke-width="1.51"></path><path d="M1265,-37L1270,97L1341,83Z" fill="#6f90ae" stroke="#6f90ae" stroke-width="1.51"></path><path d="M1229,394L1244,467L1351,365Z" fill="#264ca0" stroke="#264ca0" stroke-width="1.51"></path><path d="M1341,83L1270,97L1365,219Z" fill="#4e83b0" stroke="#4e83b0" stroke-width="1.51"></path><path d="M1270,97L1238,249L1365,219Z" fill="#397eb2" stroke="#397eb2" stroke-width="1.51"></path><path d="M1238,249L1351,365L1365,219Z" fill="#286aae" stroke="#286aae" stroke-width="1.51"></path><path d="M1238,249L1229,394L1351,365Z" fill="#255da8" stroke="#255da8" stroke-width="1.51"></path><path d="M1264,-119L1265,-37L1353,-83Z" fill="#959dac" stroke="#959dac" stroke-width="1.51"></path><path d="M1184,335L1229,394L1238,249Z" fill="#2465ac" stroke="#2465ac" stroke-width="1.51"></path><path d="M1264,-119L1106,-143L1265,-37Z" fill="#99a6b0" stroke="#99a6b0" stroke-width="1.51"></path><path d="M1106,-143L1140,15L1265,-37Z" fill="#90a7b1" stroke="#90a7b1" stroke-width="1.51"></path><path d="M1132,198L1238,249L1270,97Z" fill="#3787b6" stroke="#3787b6" stroke-width="1.51"></path><path d="M1128,116L1132,198L1270,97Z" fill="#4990b6" stroke="#4990b6" stroke-width="1.51"></path><path d="M1265,-37L1140,15L1270,97Z" fill="#789ab0" stroke="#789ab0" stroke-width="1.51"></path><path d="M1140,15L1128,116L1270,97Z" fill="#6198b3" stroke="#6198b3" stroke-width="1.51"></path><path d="M1229,394L1099,454L1244,467Z" fill="#264ca0" stroke="#264ca0" stroke-width="1.51"></path><path d="M1132,198L1184,335L1238,249Z" fill="#257ab5" stroke="#257ab5" stroke-width="1.51"></path><path d="M1184,335L1099,454L1229,394Z" fill="#2558a6" stroke="#2558a6" stroke-width="1.51"></path><path d="M1132,198L998,331L1184,335Z" fill="#227bb7" stroke="#227bb7" stroke-width="1.51"></path><path d="M998,331L1099,454L1184,335Z" fill="#2565ac" stroke="#2565ac" stroke-width="1.51"></path><path d="M1019,-142L1001,-25L1106,-143Z" fill="#9cbab9" stroke="#9cbab9" stroke-width="1.51"></path><path d="M1128,116L1009,86L1132,198Z" fill="#4a9aba" stroke="#4a9aba" stroke-width="1.51"></path><path d="M979,241L998,331L1132,198Z" fill="#238bbd" stroke="#238bbd" stroke-width="1.51"></path><path d="M1106,-143L1001,-25L1140,15Z" fill="#91b1b5" stroke="#91b1b5" stroke-width="1.51"></path><path d="M1009,86L1128,116L1140,15Z" fill="#63a2b7" stroke="#63a2b7" stroke-width="1.51"></path><path d="M1001,-25L1009,86L1140,15Z" fill="#79adb8" stroke="#79adb8" stroke-width="1.51"></path><path d="M1009,86L979,241L1132,198Z" fill="#369bbe" stroke="#369bbe" stroke-width="1.51"></path><path d="M269,-153L457,-95L691,-113Z" fill="#bee4bc" stroke="#bee4bc" stroke-width="1.51"></path><path d="M998,331L996,517L1099,454Z" fill="#2a5ea8" stroke="#2a5ea8" stroke-width="1.51"></path><path d="M905,76L859,192L979,241Z" fill="#3aa8c2" stroke="#3aa8c2" stroke-width="1.51"></path><path d="M885,507L996,517L998,331Z" fill="#2b62a9" stroke="#2b62a9" stroke-width="1.51"></path><path d="M917,314L885,507L998,331Z" fill="#2973b1" stroke="#2973b1" stroke-width="1.51"></path><path d="M905,76L979,241L1009,86Z" fill="#48a8c0" stroke="#48a8c0" stroke-width="1.51"></path><path d="M1001,-25L941,20L1009,86Z" fill="#79b5bb" stroke="#79b5bb" stroke-width="1.51"></path><path d="M923,-128L1001,-25L1019,-142Z" fill="#9dc0bb" stroke="#9dc0bb" stroke-width="1.51"></path><path d="M979,241L917,314L998,331Z" fill="#2088bd" stroke="#2088bd" stroke-width="1.51"></path><path d="M941,20L905,76L1009,86Z" fill="#69b3bd" stroke="#69b3bd" stroke-width="1.51"></path><path d="M923,-128L941,20L1001,-25Z" fill="#91c0bb" stroke="#91c0bb" stroke-width="1.51"></path><path d="M859,192L917,314L979,241Z" fill="#2797c1" stroke="#2797c1" stroke-width="1.51"></path><path d="M765,338L885,507L917,314Z" fill="#3078b2" stroke="#3078b2" stroke-width="1.51"></path><path d="M795,-114L807,6L923,-128Z" fill="#9eccbb" stroke="#9eccbb" stroke-width="1.51"></path><path d="M923,-128L807,6L941,20Z" fill="#92c4bb" stroke="#92c4bb" stroke-width="1.51"></path><path d="M807,6L905,76L941,20Z" fill="#79bcbd" stroke="#79bcbd" stroke-width="1.51"></path><path d="M765,338L768,506L885,507Z" fill="#386dab" stroke="#386dab" stroke-width="1.51"></path><path d="M859,192L765,338L917,314Z" fill="#2a95bf" stroke="#2a95bf" stroke-width="1.51"></path><path d="M747,226L765,338L859,192Z" fill="#31a1c2" stroke="#31a1c2" stroke-width="1.51"></path><path d="M754,151L859,192L905,76Z" fill="#4db1c1" stroke="#4db1c1" stroke-width="1.51"></path><path d="M807,6L754,151L905,76Z" fill="#66bbbe" stroke="#66bbbe" stroke-width="1.51"></path><path d="M311,480L190,513L499,488Z" fill="#6c7d97" stroke="#6c7d97" stroke-width="1.51"></path><path d="M457,-95L511,-84L691,-113Z" fill="#b4dfb9" stroke="#b4dfb9" stroke-width="1.51"></path><path d="M754,151L747,226L859,192Z" fill="#3caec4" stroke="#3caec4" stroke-width="1.51"></path><path d="M765,338L651,367L768,506Z" fill="#3b7eb1" stroke="#3b7eb1" stroke-width="1.51"></path><path d="M795,-114L691,-113L807,6Z" fill="#9fd1bc" stroke="#9fd1bc" stroke-width="1.51"></path><path d="M691,-113L631,27L807,6Z" fill="#96d2bc" stroke="#96d2bc" stroke-width="1.51"></path><path d="M664,104L754,151L807,6Z" fill="#64c0c0" stroke="#64c0c0" stroke-width="1.51"></path><path d="M631,27L664,104L807,6Z" fill="#7cc9be" stroke="#7cc9be" stroke-width="1.51"></path><path d="M747,226L641,270L765,338Z" fill="#34a0c1" stroke="#34a0c1" stroke-width="1.51"></path><path d="M641,270L651,367L765,338Z" fill="#3d94ba" stroke="#3d94ba" stroke-width="1.51"></path><path d="M651,367L621,503L768,506Z" fill="#4374a8" stroke="#4374a8" stroke-width="1.51"></path><path d="M664,104L641,270L747,226Z" fill="#44b3c3" stroke="#44b3c3" stroke-width="1.51"></path><path d="M664,104L747,226L754,151Z" fill="#49b8c3" stroke="#49b8c3" stroke-width="1.51"></path><path d="M545,235L641,270L664,104Z" fill="#4fb5c2" stroke="#4fb5c2" stroke-width="1.51"></path><path d="M511,-84L567,-48L691,-113Z" fill="#aedcb9" stroke="#aedcb9" stroke-width="1.51"></path><path d="M567,-48L631,27L691,-113Z" fill="#a2d7bb" stroke="#a2d7bb" stroke-width="1.51"></path><path d="M641,270L566,361L651,367Z" fill="#4895b8" stroke="#4895b8" stroke-width="1.51"></path><path d="M566,361L621,503L651,367Z" fill="#4c81af" stroke="#4c81af" stroke-width="1.51"></path><path d="M631,27L555,73L664,104Z" fill="#7ac9bd" stroke="#7ac9bd" stroke-width="1.51"></path><path d="M555,73L545,235L664,104Z" fill="#64c1c0" stroke="#64c1c0" stroke-width="1.51"></path><path d="M566,361L499,488L621,503Z" fill="#537aa9" stroke="#537aa9" stroke-width="1.51"></path><path d="M545,235L566,361L641,270Z" fill="#4ca3bd" stroke="#4ca3bd" stroke-width="1.51"></path><path d="M567,-48L555,73L631,27Z" fill="#93d3bb" stroke="#93d3bb" stroke-width="1.51"></path><path d="M-91,-160L209,-136L269,-153Z" fill="#e9f6be" stroke="#e9f6be" stroke-width="1.51"></path><path d="M390,457L311,480L499,488Z" fill="#657d9e" stroke="#657d9e" stroke-width="1.51"></path><path d="M438,220L545,235L555,73Z" fill="#61c0c0" stroke="#61c0c0" stroke-width="1.51"></path><path d="M377,77L438,220L555,73Z" fill="#79cabd" stroke="#79cabd" stroke-width="1.51"></path><path d="M511,-84L386,26L555,73Z" fill="#a2dab8" stroke="#a2dab8" stroke-width="1.51"></path><path d="M423,399L499,488L566,361Z" fill="#5b85ad" stroke="#5b85ad" stroke-width="1.51"></path><path d="M545,235L438,220L566,361Z" fill="#56abbe" stroke="#56abbe" stroke-width="1.51"></path><path d="M438,220L423,399L566,361Z" fill="#5b9db6" stroke="#5b9db6" stroke-width="1.51"></path><path d="M511,-84L555,73L567,-48Z" fill="#a3d9b9" stroke="#a3d9b9" stroke-width="1.51"></path><path d="M457,-95L386,26L511,-84Z" fill="#b5e0b6" stroke="#b5e0b6" stroke-width="1.51"></path><path d="M386,26L377,77L555,73Z" fill="#93d4ba" stroke="#93d4ba" stroke-width="1.51"></path><path d="M423,399L390,457L499,488Z" fill="#6580a9" stroke="#6580a9" stroke-width="1.51"></path><path d="M336,401L423,399L438,220Z" fill="#6a9db4" stroke="#6a9db4" stroke-width="1.51"></path><path d="M263,257L336,401L438,220Z" fill="#74afb9" stroke="#74afb9" stroke-width="1.51"></path><path d="M269,-153L386,26L457,-95Z" fill="#c5e7b5" stroke="#c5e7b5" stroke-width="1.51"></path><path d="M377,77L262,161L438,220Z" fill="#82cbbd" stroke="#82cbbd" stroke-width="1.51"></path><path d="M262,161L263,257L438,220Z" fill="#7ec3be" stroke="#7ec3be" stroke-width="1.51"></path><path d="M269,-153L284,36L386,26Z" fill="#c3e7b5" stroke="#c3e7b5" stroke-width="1.51"></path><path d="M336,401L390,457L423,399Z" fill="#6d8aab" stroke="#6d8aab" stroke-width="1.51"></path><path d="M269,-153L223,-11L284,36Z" fill="#cdebb4" stroke="#cdebb4" stroke-width="1.51"></path><path d="M336,401L311,480L390,457Z" fill="#7385a8" stroke="#7385a8" stroke-width="1.51"></path><path d="M284,36L377,77L386,26Z" fill="#a5dbb8" stroke="#a5dbb8" stroke-width="1.51"></path><path d="M284,36L262,161L377,77Z" fill="#9ad6b9" stroke="#9ad6b9" stroke-width="1.51"></path><path d="M137,388L311,480L336,401Z" fill="#808fa9" stroke="#808fa9" stroke-width="1.51"></path><path d="M263,257L137,388L336,401Z" fill="#83a2b1" stroke="#83a2b1" stroke-width="1.51"></path><path d="M209,-136L223,-11L269,-153Z" fill="#dcf1b4" stroke="#dcf1b4" stroke-width="1.51"></path><path d="M168,93L262,161L284,36Z" fill="#a3dab8" stroke="#a3dab8" stroke-width="1.51"></path><path d="M137,388L190,513L311,480Z" fill="#8389a2" stroke="#8389a2" stroke-width="1.51"></path><path d="M-97,467L-149,495L190,513Z" fill="#8d8998" stroke="#8d8998" stroke-width="1.51"></path><path d="M103,329L137,388L263,257Z" fill="#8cacb4" stroke="#8cacb4" stroke-width="1.51"></path><path d="M223,-11L168,93L284,36Z" fill="#b9e3b6" stroke="#b9e3b6" stroke-width="1.51"></path><path d="M92,458L-97,467L190,513Z" fill="#8b899b" stroke="#8b899b" stroke-width="1.51"></path><path d="M-91,-160L86,-85L209,-136Z" fill="#ebf8b9" stroke="#ebf8b9" stroke-width="1.51"></path><path d="M262,161L135,205L263,257Z" fill="#8ec9bc" stroke="#8ec9bc" stroke-width="1.51"></path><path d="M135,205L103,329L263,257Z" fill="#8ebfbb" stroke="#8ebfbb" stroke-width="1.51"></path><path d="M168,93L135,205L262,161Z" fill="#9ad4bb" stroke="#9ad4bb" stroke-width="1.51"></path><path d="M83,262L103,329L135,205Z" fill="#93c0bb" stroke="#93c0bb" stroke-width="1.51"></path><path d="M137,388L92,458L190,513Z" fill="#8a8ba4" stroke="#8a8ba4" stroke-width="1.51"></path><path d="M209,-136L86,-85L223,-11Z" fill="#ddf1b3" stroke="#ddf1b3" stroke-width="1.51"></path><path d="M86,-85L168,93L223,-11Z" fill="#cdecb4" stroke="#cdecb4" stroke-width="1.51"></path><path d="M86,-85L25,31L168,93Z" fill="#ceebb4" stroke="#ceebb4" stroke-width="1.51"></path><path d="M31,104L135,205L168,93Z" fill="#a6d9ba" stroke="#a6d9ba" stroke-width="1.51"></path><path d="M25,31L31,104L168,93Z" fill="#b7e2b6" stroke="#b7e2b6" stroke-width="1.51"></path><path d="M31,104L83,262L135,205Z" fill="#9dd1bc" stroke="#9dd1bc" stroke-width="1.51"></path><path d="M103,329L92,458L137,388Z" fill="#8f9bac" stroke="#8f9bac" stroke-width="1.51"></path><path d="M31,104L-67,263L83,262Z" fill="#a1cfbb" stroke="#a1cfbb" stroke-width="1.51"></path><path d="M83,262L-67,263L103,329Z" fill="#98bcb8" stroke="#98bcb8" stroke-width="1.51"></path><path d="M-67,263L-66,388L103,329Z" fill="#9ab0b4" stroke="#9ab0b4" stroke-width="1.51"></path><path d="M-66,388L92,458L103,329Z" fill="#949dac" stroke="#949dac" stroke-width="1.51"></path><path d="M-66,388L-97,467L92,458Z" fill="#9893a9" stroke="#9893a9" stroke-width="1.51"></path><path d="M-65,26L25,31L86,-85Z" fill="#dbf0b3" stroke="#dbf0b3" stroke-width="1.51"></path><path d="M-91,-160L-65,26L86,-85Z" fill="#eaf7b3" stroke="#eaf7b3" stroke-width="1.51"></path><path d="M25,31L-65,26L31,104Z" fill="#c6e7b6" stroke="#c6e7b6" stroke-width="1.51"></path><path d="M-65,26L-91,133L31,104Z" fill="#bbe3ba" stroke="#bbe3ba" stroke-width="1.51"></path><path d="M-91,133L-67,263L31,104Z" fill="#a9d9be" stroke="#a9d9be" stroke-width="1.51"></path><path d="M-208,-125L-143,28L-91,-160Z" fill="#f1fabe" stroke="#f1fabe" stroke-width="1.51"></path><path d="M-91,133L-201,209L-67,263Z" fill="#a7d3c5" stroke="#a7d3c5" stroke-width="1.51"></path><path d="M-201,209L-174,370L-67,263Z" fill="#a0c0c5" stroke="#a0c0c5" stroke-width="1.51"></path><path d="M-67,263L-174,370L-66,388Z" fill="#9caeba" stroke="#9caeba" stroke-width="1.51"></path><path d="M-174,370L-97,467L-66,388Z" fill="#9b9bb3" stroke="#9b9bb3" stroke-width="1.51"></path><path d="M-91,-160L-143,28L-65,26Z" fill="#e5f5ba" stroke="#e5f5ba" stroke-width="1.51"></path><path d="M-140,83L-91,133L-65,26Z" fill="#c0e5be" stroke="#c0e5be" stroke-width="1.51"></path><path d="M-143,28L-140,83L-65,26Z" fill="#cdebbe" stroke="#cdebbe" stroke-width="1.51"></path><path d="M-174,370L-149,495L-97,467Z" fill="#9b93b1" stroke="#9b93b1" stroke-width="1.51"></path><path d="M-140,83L-201,209L-91,133Z" fill="#b2ddc5" stroke="#b2ddc5" stroke-width="1.51"></path><path d="M-143,28L-201,209L-140,83Z" fill="#bbe2c5" stroke="#bbe2c5" stroke-width="1.51"></path><path d="M-208,-125L-201,209L-143,28Z" fill="#d3edc3" stroke="#d3edc3" stroke-width="1.51"></path></svg>